<?xml version="1.0" standalone="no"?>
<!DOCTYPE svg PUBLIC "-//W3C//DTD SVG 20010904//EN"
 "http://www.w3.org/TR/2001/REC-SVG-20010904/DTD/svg10.dtd">
<svg version="1.0" xmlns="http://www.w3.org/2000/svg"
 width="2029.000000pt" height="2029.000000pt" viewBox="0 0 2029.000000 2029.000000"
 preserveAspectRatio="xMidYMid meet">
<metadata>
Created by potrace 1.11, written by Peter Selinger 2001-2013
</metadata>
<g transform="translate(0.000000,2029.000000) scale(0.100000,-0.100000)"
fill="#000000" stroke="none">
<path d="M9585 19304 c-2056 -50 -3993 -752 -5566 -2020 -456 -366 -978 -886
-1346 -1341 -1093 -1347 -1780 -2994 -1977 -4743 -67 -587 -74 -1328 -20
-1915 238 -2593 1539 -4926 3614 -6479 1332 -997 2925 -1612 4600 -1775 332
-33 554 -43 920 -43 706 0 1341 70 2015 222 1087 245 2161 711 3083 1337 318
216 644 467 932 719 166 145 669 646 811 809 836 954 1440 1997 1828 3153 239
711 381 1398 447 2162 35 406 30 1129 -12 1585 -154 1708 -778 3337 -1799
4693 -282 374 -514 641 -845 972 -692 692 -1446 1239 -2315 1680 -1117 566
-2362 900 -3620 969 -207 12 -575 19 -750 15z m665 -94 c1058 -55 2023 -266
2973 -650 2378 -959 4240 -2899 5108 -5322 529 -1475 672 -3103 409 -4645
-419 -2448 -1871 -4658 -3970 -6038 -1252 -823 -2655 -1313 -4150 -1450 -443
-40 -1056 -44 -1500 -10 -1512 116 -2908 572 -4174 1363 -589 368 -1115 791
-1622 1304 -230 232 -338 351 -515 563 -1653 1988 -2367 4569 -1988 7180 334
2300 1534 4372 3359 5802 693 542 1498 996 2335 1315 880 337 1832 536 2810
587 224 12 704 12 925 1z"/>
<path d="M9355 18584 c-22 -2 -110 -8 -195 -14 -774 -54 -1601 -237 -2349
-520 -1117 -423 -2127 -1077 -2981 -1931 -1354 -1355 -2202 -3118 -2414 -5019
-80 -713 -68 -1421 34 -2140 214 -1500 837 -2925 1793 -4103 353 -436 812
-895 1244 -1244 1138 -921 2462 -1520 3898 -1763 422 -72 804 -107 1260 -117
1365 -28 2735 285 3960 907 651 331 1226 722 1789 1219 175 154 544 522 697
696 904 1021 1536 2204 1869 3500 377 1464 354 3005 -65 4455 -622 2151 -2083
3970 -4060 5055 -1031 566 -2133 894 -3380 1006 -114 10 -1015 21 -1100 13z
m750 -744 c121 -6 274 -15 340 -20 2267 -196 4313 -1368 5654 -3239 753 -1049
1236 -2279 1400 -3561 38 -296 53 -507 58 -850 10 -584 -30 -1041 -137 -1582
-268 -1354 -886 -2596 -1824 -3668 -136 -156 -440 -464 -611 -620 -1326 -1207
-2969 -1905 -4750 -2020 -205 -13 -705 -13 -910 0 -1028 66 -1999 325 -2930
780 -998 489 -1898 1198 -2625 2070 -895 1074 -1477 2369 -1669 3716 -54 378
-63 510 -68 1039 -8 824 32 1284 168 1904 475 2162 1901 4044 3884 5124 1209
658 2643 989 4020 927z"/>
<path d="M9712 17590 c-202 -37 -367 -161 -457 -343 -68 -138 -80 -195 -79
-372 1 -129 4 -161 25 -230 69 -226 230 -386 444 -440 78 -20 269 -20 355 1
176 41 330 164 408 324 65 132 77 190 77 370 0 176 -12 237 -72 360 -28 56
-58 96 -117 156 -86 85 -161 131 -266 160 -68 18 -248 26 -318 14z m185 -315
c127 -38 202 -182 203 -385 0 -234 -109 -390 -272 -390 -70 1 -125 27 -175 84
-56 64 -83 145 -90 271 -13 247 95 422 268 434 8 1 38 -6 66 -14z"/>
<path d="M8542 17481 c-111 -26 -204 -50 -206 -52 -5 -7 -46 -530 -46 -595 0
-34 -3 -89 -7 -124 l-6 -62 -66 129 c-103 200 -304 553 -316 553 -19 -1 -426
-97 -431 -102 -4 -5 214 -1350 219 -1354 4 -3 329 75 335 80 3 3 -23 162 -57
352 -35 190 -61 348 -58 350 2 3 21 -28 42 -68 49 -94 297 -552 302 -557 4 -5
258 50 273 59 6 4 23 168 40 389 16 211 31 385 33 388 3 2 8 -9 11 -24 9 -40
189 -707 191 -711 3 -4 347 77 353 83 3 3 -80 300 -184 660 -143 496 -193 655
-204 654 -8 0 -106 -22 -218 -48z"/>
<path d="M10811 17483 c-38 -153 -283 -1294 -278 -1299 8 -8 327 -77 332 -72
4 4 134 596 156 708 l12 64 38 -139 c21 -77 77 -273 126 -435 l88 -295 177
-39 c98 -22 180 -37 183 -34 6 6 294 1302 295 1324 0 9 -329 88 -337 81 -4 -5
-131 -588 -138 -639 -4 -27 -10 -48 -14 -48 -4 0 -16 35 -26 78 -24 101 -202
683 -212 693 -6 6 -368 89 -388 89 -2 0 -9 -17 -14 -37z"/>
<path d="M12016 16535 c-148 -343 -268 -627 -268 -631 0 -5 75 -40 166 -80
l166 -73 14 27 c7 15 46 104 86 197 40 94 77 176 83 183 6 8 27 22 48 33 l37
19 6 -38 c3 -20 17 -147 31 -282 14 -135 28 -254 30 -265 3 -16 45 -38 179
-95 96 -40 174 -78 173 -83 -2 -9 739 -496 753 -496 6 0 164 248 167 263 2 9
-85 68 -429 287 -9 6 101 188 114 189 4 0 89 -53 190 -118 101 -65 189 -121
195 -126 9 -5 40 35 98 124 47 72 85 132 85 134 0 3 -82 57 -182 122 -101 64
-189 123 -197 130 -11 10 -6 24 34 88 29 45 53 73 59 69 6 -4 101 -65 210
-135 123 -79 203 -125 209 -119 5 5 45 65 88 133 61 95 76 125 66 134 -6 6
-171 113 -366 238 -289 186 -356 225 -366 214 -7 -7 -160 -242 -340 -523 -180
-280 -332 -516 -339 -522 -9 -10 -24 75 -65 375 -29 213 -55 396 -57 407 -4
18 38 44 320 199 180 99 326 182 326 185 0 5 -336 152 -402 176 -11 4 -94 -42
-245 -137 -125 -80 -234 -148 -240 -152 -7 -4 3 28 21 71 19 43 59 136 90 207
31 72 56 135 56 141 0 7 -255 126 -329 152 -3 2 -127 -278 -275 -622z"/>
<path d="M6525 16854 c-88 -53 -161 -97 -163 -99 -3 -3 175 -503 227 -640 24
-61 27 -75 13 -60 -11 11 -124 138 -252 283 -128 144 -236 262 -241 262 -6 0
-301 -173 -318 -186 -3 -3 175 -521 236 -684 l24 -65 -25 25 c-13 14 -129 144
-256 290 -128 146 -237 266 -241 268 -11 5 -339 -191 -336 -200 2 -8 767 -795
899 -925 l83 -82 155 94 c85 52 159 96 164 98 7 2 -114 381 -222 697 -3 8 15
-7 39 -35 197 -221 443 -491 450 -493 5 -2 81 40 169 93 124 75 160 101 156
113 -3 10 -91 307 -196 662 -105 355 -193 653 -198 663 -6 15 -28 4 -167 -79z"/>
<path d="M9455 16139 c-1128 -57 -2164 -388 -3030 -969 -225 -150 -525 -384
-736 -573 l-107 -96 43 71 c61 98 85 175 92 289 4 70 1 116 -11 170 -49 222
-226 440 -441 544 -113 54 -176 69 -290 69 -171 -1 -300 -59 -441 -199 -75
-74 -99 -105 -133 -175 -55 -112 -75 -209 -67 -323 18 -265 201 -520 461 -643
106 -49 168 -64 273 -64 101 0 189 22 278 69 l73 38 -126 -131 c-69 -72 -174
-187 -232 -255 -175 -206 -177 -205 -21 7 l60 82 -127 95 c-71 52 -131 95
-134 95 -4 0 -73 -90 -154 -200 -80 -110 -150 -200 -156 -200 -7 0 -330 234
-766 557 l-73 54 -107 -146 c-60 -81 -108 -150 -108 -155 0 -6 1033 -773 1086
-806 7 -4 23 6 41 27 16 19 1 -11 -33 -66 -72 -115 -97 -147 -49 -62 17 32 31
59 29 61 -2 1 -66 35 -143 75 -91 48 -142 69 -148 63 -6 -6 -60 -106 -122
-222 -61 -117 -115 -213 -119 -212 -4 0 -211 106 -458 237 -248 130 -455 234
-462 232 -20 -9 -173 -315 -162 -325 26 -24 1197 -632 1206 -627 5 4 3 -10 -6
-32 -9 -21 -35 -84 -58 -141 -22 -56 -42 -101 -44 -99 -1 2 13 50 32 107 19
57 34 104 32 105 -1 1 -68 24 -149 53 -133 46 -149 49 -156 34 -5 -9 -44 -122
-88 -250 -75 -221 -80 -233 -102 -227 -12 3 -60 19 -107 36 l-84 31 14 36 c8
20 43 121 78 224 l64 186 -146 51 c-81 28 -149 51 -153 51 -3 0 -38 -96 -78
-212 -40 -117 -76 -217 -80 -222 -9 -10 -170 41 -170 54 0 5 36 112 79 239
l79 230 -51 19 c-111 41 -249 84 -253 79 -9 -8 -285 -819 -281 -823 4 -4 1244
-432 1278 -441 13 -4 26 25 64 136 27 77 50 139 52 137 2 -2 -12 -58 -31 -125
-206 -722 -280 -1601 -200 -2371 89 -855 359 -1660 797 -2375 44 -71 97 -161
119 -200 64 -117 109 -136 204 -90 134 66 251 319 242 523 l-3 87 -87 160
c-339 625 -547 1289 -625 1995 -22 205 -26 813 -5 1010 49 476 141 908 282
1330 444 1332 1334 2353 2652 3044 1327 695 2755 802 4211 315 663 -222 1254
-550 1727 -959 64 -55 134 -105 179 -128 69 -34 82 -37 161 -37 79 0 92 3 161
37 90 45 199 140 240 212 64 112 26 189 -149 301 -41 26 -153 111 -250 189
-381 304 -716 520 -1122 720 -506 250 -986 402 -1630 516 -579 103 -852 123
-1325 99z m-4398 -889 c76 -38 186 -137 239 -217 40 -60 74 -156 74 -206 0
-113 -91 -214 -208 -233 -136 -22 -348 130 -438 311 -60 121 -57 221 9 300 74
91 197 107 324 45z m-147 -1474 c0 -2 -8 -10 -17 -17 -16 -13 -17 -12 -4 4 13
16 21 21 21 13z m-250 -340 c0 -2 -8 -10 -17 -17 -16 -13 -17 -12 -4 4 13 16
21 21 21 13z"/>
<path d="M14285 15582 c-59 -240 -113 -446 -120 -457 -7 -11 -92 -108 -189
-215 -97 -107 -176 -197 -175 -200 1 -10 264 -239 274 -238 6 0 94 93 196 206
l185 206 439 146 438 146 -149 135 c-82 74 -154 138 -161 142 -6 4 -116 -42
-244 -103 -128 -60 -233 -109 -234 -107 -1 1 36 110 81 242 46 132 84 242 84
246 0 7 -285 270 -306 282 -7 4 -47 -139 -119 -431z"/>
<path d="M10850 15013 c-102 -5 -316 -32 -420 -54 -589 -125 -1055 -438 -1373
-924 -78 -120 -203 -373 -255 -515 -129 -359 -188 -663 -298 -1545 -56 -451
-339 -2480 -419 -3000 -24 -159 -51 -351 -60 -425 -39 -337 -148 -560 -358
-726 -73 -58 -131 -90 -377 -208 -27 -13 -35 -33 -22 -54 6 -9 156 -35 438
-77 576 -86 1286 -183 1301 -178 7 3 14 12 17 21 7 22 581 4048 721 5054 127
917 142 998 222 1243 124 382 377 714 712 936 238 158 559 274 881 320 91 12
110 21 110 50 0 26 -22 34 -145 53 -193 28 -449 40 -675 29z m460 -82 l65 -6
-60 -14 c-107 -24 -348 -107 -445 -154 -335 -161 -604 -405 -804 -729 -137
-223 -231 -515 -292 -913 -14 -93 -28 -180 -30 -192 -4 -20 -18 -9 -112 85
-209 210 -418 349 -672 448 -68 26 -84 36 -82 51 7 31 109 255 157 343 109
198 225 349 386 506 157 151 286 242 487 343 244 122 496 193 802 226 121 13
489 17 600 6z m-2359 -1735 c272 -110 553 -334 707 -566 l39 -58 -18 -128
c-10 -71 -68 -480 -128 -909 -61 -430 -113 -787 -116 -795 -9 -21 -107 -99
-205 -162 -232 -151 -514 -249 -792 -276 -49 -4 -88 -6 -88 -4 0 10 81 580 86
605 4 20 12 27 28 27 37 0 183 40 257 70 145 60 315 197 401 324 141 205 167
431 78 668 -12 32 -25 60 -29 62 -4 3 -139 -31 -300 -76 -161 -44 -294 -78
-297 -75 -5 5 46 419 77 627 32 209 77 452 110 593 l31 129 27 -7 c14 -3 74
-25 132 -49z m339 -3501 c-53 -371 -99 -678 -103 -681 -7 -8 -261 19 -482 51
-162 24 -502 88 -511 97 -2 2 24 201 58 441 l61 437 88 0 c313 0 663 108 905
279 38 27 72 50 75 50 3 1 -38 -303 -91 -674z m-494 -959 c7 -3 -32 -230 -110
-647 -66 -354 -121 -646 -123 -648 -4 -6 -1012 136 -1092 155 -22 5 -14 11 59
50 123 66 196 121 290 221 95 100 156 199 207 333 36 96 50 174 88 469 14 107
27 197 30 201 3 5 614 -120 651 -134z m349 -58 c-3 -18 -46 -316 -95 -662 -50
-346 -91 -630 -92 -632 -4 -2 -121 16 -125 20 -2 1 50 296 114 654 l117 652
44 0 43 0 -6 -32z"/>
<path d="M15229 14400 c-594 -38 -1039 -227 -1446 -613 -279 -265 -513 -662
-628 -1064 -55 -193 -81 -348 -225 -1373 -83 -586 -209 -1470 -281 -1965 -71
-495 -149 -1055 -174 -1245 -45 -349 -62 -432 -116 -562 -99 -240 -290 -420
-564 -533 -50 -20 -96 -43 -104 -50 -22 -21 -4 -54 32 -60 18 -3 408 -59 867
-125 660 -95 837 -117 847 -107 13 13 58 320 398 2717 337 2385 451 3169 480
3305 120 577 399 995 842 1261 217 131 526 236 836 285 97 15 127 38 93 72
-41 40 -568 76 -857 57z m-534 -411 l139 -136 -83 -89 c-199 -213 -339 -453
-436 -747 -64 -195 -87 -317 -186 -1011 -50 -347 -141 -984 -203 -1416 l-113
-785 -84 -27 c-46 -14 -228 -72 -404 -128 -475 -152 -575 -183 -581 -177 -4 4
84 660 103 765 5 29 14 37 87 74 427 214 774 619 919 1073 63 199 72 256 72
495 0 189 -3 228 -23 320 -75 332 -224 608 -466 857 l-50 53 33 67 c186 380
616 792 999 958 l76 33 31 -21 c16 -12 93 -83 170 -158z m-1330 -1244 c158
-202 259 -427 299 -664 20 -119 21 -312 1 -425 -55 -315 -235 -626 -492 -851
-84 -74 -261 -200 -269 -193 -2 3 19 164 46 359 l51 354 44 90 c24 50 52 119
61 155 23 86 23 244 0 328 -16 61 -16 69 4 210 43 303 80 482 137 659 31 96
26 97 118 -22z m-625 -4060 c398 -918 470 -1089 463 -1095 -7 -6 -837 -210
-853 -210 -3 0 20 53 52 118 75 153 100 257 138 567 17 138 49 376 71 530 21
154 39 282 39 284 0 11 13 -17 90 -194z m500 -1362 c-1 -41 -40 -517 -44 -520
-4 -5 -1056 143 -1101 155 l-30 8 51 50 c74 75 41 65 869 258 252 59 255 59
255 49z"/>
<path d="M15851 13265 c-333 -152 -606 -277 -608 -279 -2 -2 14 -43 37 -91 22
-48 40 -91 40 -94 0 -3 -38 66 -83 154 -113 218 -173 319 -230 381 -112 123
-186 92 -382 -161 -156 -200 -161 -266 -35 -431 59 -77 88 -133 195 -374 652
-1469 692 -2906 121 -4285 -180 -432 -476 -957 -748 -1328 -797 -1081 -2098
-1836 -3528 -2047 -282 -41 -454 -53 -785 -54 -784 -1 -1395 130 -2130 458
-486 218 -959 508 -1335 820 -122 101 -201 140 -290 140 -118 1 -221 -54 -357
-192 -151 -153 -139 -216 64 -341 45 -28 128 -89 185 -137 769 -644 1677
-1077 2703 -1288 94 -20 220 -47 280 -60 226 -51 361 -61 840 -61 460 1 608 9
925 56 1598 233 3066 1111 4035 2414 184 247 357 522 505 802 41 78 76 141 77
139 1 -1 -5 -24 -14 -51 -11 -35 -16 -89 -17 -180 -1 -116 2 -138 25 -202 79
-216 284 -391 545 -465 111 -31 280 -32 379 -1 247 78 433 323 452 599 14 197
-57 367 -218 518 -63 60 -101 85 -191 130 -62 30 -144 62 -183 72 -85 21 -248
23 -325 5 -139 -33 -287 -136 -362 -252 -17 -27 -33 -49 -35 -49 -1 0 9 26 23
58 100 222 204 505 280 757 l53 180 -6 -80 c-23 -312 170 -531 451 -513 135 9
232 78 369 261 126 169 162 193 214 141 24 -24 25 -31 21 -94 -6 -79 -46 -174
-110 -258 -22 -30 -36 -57 -32 -61 5 -5 69 -42 142 -84 l132 -76 35 47 c51 69
112 197 134 284 60 235 23 419 -110 543 -80 74 -147 99 -264 100 -83 0 -96 -3
-159 -34 -82 -40 -169 -123 -248 -236 -78 -112 -119 -149 -164 -149 -133 0
-103 237 56 434 l50 63 -28 17 c-15 9 -76 43 -137 75 -89 48 -106 60 -90 66
11 5 299 72 640 149 341 78 629 145 640 149 18 7 21 25 36 222 13 169 14 216
4 224 -17 14 -1314 519 -1320 514 -7 -8 -33 -374 -27 -381 4 -3 70 -29 147
-56 77 -28 147 -53 155 -56 14 -6 14 -24 4 -157 -6 -82 -13 -151 -15 -153 -2
-2 -78 -20 -168 -40 -90 -20 -165 -37 -166 -38 -1 -2 -8 -92 -16 -200 l-14
-197 24 6 c21 5 22 4 12 -15 -6 -12 -15 -24 -21 -27 -16 -10 -80 -125 -112
-200 -16 -38 -27 -58 -23 -43 109 520 144 817 152 1298 9 538 -30 947 -137
1425 -83 374 -241 853 -390 1181 -16 37 -29 68 -27 70 7 7 424 195 443 200 17
5 24 -2 38 -35 37 -95 19 -134 -117 -242 -117 -94 -227 -198 -227 -215 0 -7
32 -81 71 -165 38 -85 72 -170 75 -189 4 -29 223 -871 228 -877 2 -3 299 77
305 82 3 4 -63 263 -126 496 -4 12 17 21 99 42 57 15 106 27 109 27 3 0 32
-101 65 -225 32 -124 63 -225 69 -225 5 0 74 16 153 37 90 24 142 42 142 50 0
7 -25 107 -55 221 -30 115 -55 213 -55 219 0 9 169 59 175 51 1 -2 30 -109 64
-237 34 -129 64 -237 66 -239 6 -6 288 68 298 78 7 7 -190 786 -211 831 -6 14
-71 -1 -512 -117 -278 -74 -571 -152 -653 -173 l-147 -39 21 30 c12 17 99 95
194 173 129 107 183 159 214 205 22 34 41 69 41 76 0 18 -2 19 66 -13 52 -25
71 -28 159 -28 112 0 159 16 244 80 139 106 173 275 100 502 -44 138 -239 514
-266 513 -5 0 -280 -124 -612 -275z m561 -245 c37 -88 37 -139 -2 -183 -38
-43 -98 -63 -145 -47 -43 14 -96 75 -123 140 l-21 49 62 28 c34 15 87 40 117
55 30 15 62 26 70 25 8 -1 27 -31 42 -67z m361 -3439 l129 -47 -134 -28 c-73
-15 -143 -30 -155 -33 -22 -5 -23 -2 -23 43 0 27 3 66 6 87 8 44 -10 46 177
-22z m-1006 -1043 c-3 -8 -6 -5 -6 6 -1 11 2 17 5 13 3 -3 4 -12 1 -19z m247
-1088 c156 -40 311 -151 358 -256 44 -100 15 -216 -70 -281 -198 -151 -661 68
-665 316 -1 61 41 151 88 187 73 55 165 66 289 34z m-653 -17 c-12 -20 -14
-14 -5 12 4 9 9 14 11 11 3 -2 0 -13 -6 -23z"/>
<path d="M6462 13402 c-8 -6 -28 -104 -53 -268 -75 -487 -710 -4948 -755
-5303 -51 -405 -74 -525 -138 -717 -239 -713 -783 -1152 -1593 -1284 -77 -12
-98 -27 -88 -59 7 -22 15 -25 178 -46 359 -49 769 -33 1082 42 398 94 734 277
1019 553 185 180 331 382 450 624 210 427 298 857 486 2366 76 608 359 2649
411 2965 10 66 29 149 40 185 87 265 286 465 602 601 90 39 97 43 97 70 0 22
-6 30 -22 34 -13 2 -390 57 -838 120 -448 64 -826 118 -840 120 -14 3 -31 1
-38 -3z m388 -123 c168 -23 308 -45 312 -48 4 -3 -24 -31 -63 -61 -94 -73
-241 -226 -318 -330 -421 -568 -482 -1304 -155 -1862 103 -175 273 -371 423
-488 46 -36 71 -62 71 -75 0 -11 -16 -133 -35 -270 -19 -138 -42 -304 -50
-370 -9 -66 -18 -134 -21 -152 l-6 -32 -72 36 c-39 20 -121 64 -183 99 -210
120 -396 189 -602 225 -63 10 -116 21 -118 22 -3 3 425 2999 464 3250 13 88
19 106 32 103 9 -2 153 -23 321 -47z m975 -139 c220 -30 211 -25 130 -67 -276
-141 -470 -370 -540 -639 -16 -63 -102 -638 -191 -1279 -31 -225 -58 -412 -61
-415 -9 -9 -151 151 -218 245 -123 173 -220 401 -260 615 -24 127 -25 344 -1
463 37 193 127 395 247 559 82 111 252 277 369 360 118 84 322 190 353 183 12
-2 90 -14 172 -25z m-1505 -3611 c35 -5 66 -12 69 -14 4 -5 -386 -1129 -418
-1208 l-16 -37 -75 46 c-41 26 -76 48 -78 49 -7 6 162 1150 171 1163 12 15
253 17 347 1z m505 -148 c121 -58 145 -73 145 -91 0 -112 -187 -1410 -206
-1429 -6 -6 -120 34 -229 80 -230 98 -295 199 -260 401 24 137 138 471 345
1001 23 59 46 107 51 107 5 0 74 -31 154 -69z m-1015 -1338 c18 -20 42 -57 54
-82 20 -44 21 -63 24 -514 l3 -469 -23 7 c-36 12 -157 74 -215 111 l-52 33 20
63 c35 115 59 257 99 572 22 171 40 312 40 314 0 12 24 -5 50 -35z m515 -265
c151 -34 395 -131 395 -156 0 -19 -71 -265 -104 -357 -74 -214 -149 -366 -270
-548 l-71 -109 -39 44 c-52 58 -112 186 -131 280 -19 99 -20 325 0 481 14 117
53 360 60 384 5 14 20 12 160 -19z m-453 -1299 c88 -59 165 -110 172 -112 14
-5 -54 -68 -169 -156 -109 -83 -193 -135 -326 -201 l-100 -51 -97 69 c-137 98
-292 222 -292 233 0 5 7 12 15 16 48 18 287 325 367 472 l17 31 127 -97 c69
-53 198 -145 286 -204z m-1556 -680 l29 -32 -79 7 c-43 3 -93 6 -109 6 -43 0
-25 12 46 32 83 22 79 22 113 -13z"/>
<path d="M10875 12759 c-7 -11 -664 -4582 -775 -5389 -66 -482 -78 -553 -120
-721 -158 -628 -507 -1057 -1050 -1292 -169 -73 -301 -113 -590 -179 -43 -10
-56 -18 -58 -34 -2 -11 3 -26 11 -32 7 -6 69 -19 138 -29 160 -22 684 -25 829
-5 275 39 501 106 716 212 559 276 946 725 1149 1334 93 280 119 446 480 3021
47 336 114 808 149 1050 36 242 79 555 96 695 37 292 62 404 119 525 53 114
111 193 207 285 94 89 195 155 342 220 84 38 108 53 110 70 2 12 0 26 -5 31
-9 9 -1663 249 -1715 249 -15 0 -30 -5 -33 -11z m440 -119 c192 -27 350 -52
352 -54 2 -2 -17 -16 -43 -31 -62 -37 -187 -156 -240 -231 -58 -81 -119 -212
-145 -309 -30 -112 -30 -289 0 -400 57 -217 210 -420 411 -542 41 -26 76 -47
77 -47 3 -2 -87 -610 -91 -614 -13 -13 -226 64 -351 126 -221 110 -405 266
-574 484 -11 15 4 141 105 843 101 711 120 825 134 825 9 0 173 -22 365 -50z
m-435 -2113 c180 -144 383 -256 593 -326 65 -21 121 -41 123 -44 5 -5 -134
-1008 -140 -1015 -8 -7 -393 -71 -559 -91 -206 -26 -479 -52 -485 -47 -2 3 51
392 119 865 l122 860 76 -71 c42 -39 110 -98 151 -131z m530 -1743 c0 -12
-170 -1188 -198 -1371 -15 -100 -31 -185 -35 -189 -4 -4 -170 -22 -369 -40
-200 -18 -384 -35 -409 -38 l-47 -5 -6 392 c-8 487 4 955 27 1009 20 47 89
122 130 141 40 19 280 52 597 81 277 27 310 29 310 20z m-277 -1846 c-14 -75
-74 -283 -109 -374 -119 -323 -281 -574 -518 -808 l-121 -120 -3 634 c-1 348
0 635 2 637 3 3 656 59 728 62 26 1 27 -1 21 -31z m-1053 -813 l0 -575 -36 0
c-46 0 -557 51 -563 56 -2 2 34 43 81 92 239 248 389 538 498 960 6 23 13 42
15 42 3 0 5 -259 5 -575z m-874 -799 c60 -8 183 -22 274 -30 91 -9 185 -19
210 -22 l45 -7 -69 -23 c-165 -56 -411 -98 -646 -110 -150 -7 -486 4 -455 16
11 4 92 31 180 59 88 29 196 69 240 91 44 21 87 39 96 39 8 1 64 -5 125 -13z"/>
<path d="M2446 11888 c-16 -46 -67 -402 -59 -407 5 -3 105 -67 222 -141 118
-74 210 -135 205 -137 -5 -1 -119 -28 -254 -59 -135 -32 -246 -59 -248 -60 -3
-1 -72 -400 -72 -416 0 -4 197 59 437 140 l438 146 265 -44 c146 -23 269 -43
274 -44 5 0 23 81 41 181 31 181 31 182 11 187 -12 2 -137 24 -280 47 l-259
43 -348 282 c-192 156 -354 286 -359 289 -6 3 -12 0 -14 -7z"/>
<path d="M16572 11129 c-365 -37 -666 -70 -668 -72 -7 -6 28 -350 35 -358 5
-5 263 17 407 35 l41 5 13 -92 c46 -335 233 -514 518 -494 180 12 306 105 374
275 20 51 22 73 23 227 0 117 -6 204 -18 280 -17 103 -51 254 -59 259 -2 1
-302 -28 -666 -65z m442 -366 c11 -67 6 -127 -12 -163 -59 -118 -233 -102
-282 25 -21 52 -29 136 -14 142 13 5 225 29 275 32 23 1 27 -4 33 -36z"/>
<path d="M3382 10203 l-103 -4 6 -87 c14 -214 23 -438 17 -444 -4 -4 -54 -8
-112 -9 l-105 -2 -7 99 c-3 55 -9 161 -13 236 l-7 138 -107 -6 c-58 -2 -130
-7 -160 -10 l-53 -6 6 -61 c3 -34 9 -139 12 -233 l7 -171 -48 -6 c-26 -4 -67
-7 -91 -7 -41 0 -42 1 -48 38 -3 20 -8 111 -11 202 -3 91 -8 187 -11 213 l-6
49 -157 -7 c-86 -4 -157 -8 -157 -9 -4 -4 42 -866 47 -870 5 -6 1359 59 1363
66 1 1 -8 197 -20 433 -12 237 -23 438 -23 448 -1 14 -10 17 -58 15 -32 -1
-104 -4 -161 -5z"/>
<path d="M2973 9036 c-358 -83 -655 -154 -658 -158 -7 -7 63 -328 75 -348 4
-7 86 8 241 44 129 30 237 51 240 48 8 -9 91 -373 86 -378 -2 -2 -108 -28
-236 -58 -128 -29 -234 -56 -237 -58 -5 -5 73 -349 81 -357 5 -4 1325 295
1332 303 1 1 -16 84 -39 184 -34 150 -44 181 -57 177 -62 -19 -504 -116 -508
-111 -10 10 -91 371 -84 378 3 4 116 32 251 63 135 30 250 57 256 60 14 4 -66
357 -81 361 -6 1 -303 -66 -662 -150z"/>
<path d="M3575 7544 c-258 -112 -475 -204 -481 -204 -6 0 -40 66 -74 148 -35
81 -67 151 -71 156 -8 9 -299 -111 -299 -123 0 -8 417 -971 423 -977 4 -4 278
114 289 125 5 4 -22 76 -58 160 -36 84 -62 157 -57 161 4 4 215 96 468 205
253 109 464 202 469 206 5 5 -22 80 -64 176 -40 92 -73 169 -74 169 0 1 -212
-90 -471 -202z"/>
<path d="M15101 6782 c-165 -100 -332 -326 -371 -503 -19 -87 -9 -212 23 -282
36 -79 115 -160 196 -200 62 -30 72 -32 171 -32 128 1 171 17 339 124 61 40
130 79 153 87 39 14 44 13 68 -4 76 -57 -11 -217 -177 -324 -35 -23 -62 -44
-61 -48 2 -3 47 -60 102 -127 l99 -121 50 31 c136 84 276 260 330 415 26 77
29 95 25 181 -3 77 -9 107 -30 153 -35 76 -104 147 -181 189 -59 33 -66 34
-167 34 -95 -1 -112 -4 -176 -31 -40 -17 -116 -60 -170 -96 -151 -98 -193
-109 -239 -63 -54 53 -20 142 99 260 49 48 106 93 144 113 56 30 62 36 50 50
-43 55 -201 232 -207 232 -4 0 -35 -17 -70 -38z"/>
<path d="M14102 5521 c-152 -38 -327 -155 -449 -301 -57 -68 -123 -174 -123
-197 0 -5 39 -38 87 -73 48 -36 103 -78 124 -93 l37 -28 34 63 c47 89 156 196
242 238 143 71 280 38 409 -99 84 -89 119 -160 125 -254 3 -57 0 -84 -18 -130
-39 -104 -176 -228 -300 -273 -27 -10 -50 -21 -50 -25 0 -4 32 -69 71 -143 82
-155 71 -149 184 -93 85 42 138 80 223 161 303 288 337 670 86 984 -179 225
-435 323 -682 263z"/>
<path d="M5604 5251 c-104 -25 -220 -123 -269 -226 -20 -42 -30 -81 -33 -131
-8 -119 20 -203 133 -394 65 -111 79 -151 63 -186 -12 -25 -47 -40 -83 -35
-63 9 -188 123 -245 224 -17 31 -34 57 -37 57 -13 0 -253 -186 -253 -196 0
-21 82 -137 138 -197 100 -105 243 -192 353 -217 33 -7 93 -11 145 -8 72 4
100 10 147 33 73 36 149 112 184 184 24 49 28 68 28 151 0 114 -18 177 -83
288 -124 210 -135 251 -80 297 26 22 37 25 67 20 94 -17 214 -134 296 -286
l31 -58 124 99 c69 55 126 105 128 112 5 24 -73 141 -147 220 -115 122 -251
210 -378 243 -60 16 -175 18 -229 6z"/>
<path d="M13200 4854 c-30 -8 -98 -35 -149 -60 -173 -85 -311 -249 -356 -421
-19 -73 -19 -230 0 -311 53 -222 218 -444 404 -541 109 -56 192 -75 311 -68
132 8 213 36 335 115 140 90 245 235 281 388 22 95 14 274 -16 364 -96 283
-312 495 -551 540 -73 14 -194 11 -259 -6z m194 -354 c60 -29 149 -117 195
-193 127 -213 117 -400 -26 -484 -64 -37 -155 -39 -226 -4 -200 98 -351 421
-269 578 25 48 84 101 133 120 50 18 136 11 193 -17z"/>
<path d="M6397 4798 c-52 -90 -127 -231 -127 -237 0 -3 99 -60 221 -126 121
-66 225 -123 231 -126 7 -5 -76 -173 -97 -197 -2 -2 -96 47 -209 109 -114 61
-209 110 -211 108 -20 -21 -146 -272 -139 -279 5 -4 98 -56 207 -115 l197
-107 -42 -79 c-23 -44 -46 -79 -50 -79 -5 0 -103 52 -219 115 -115 63 -213
115 -217 115 -13 -1 -154 -272 -145 -280 4 -5 154 -88 333 -185 179 -98 348
-190 376 -206 l51 -29 327 601 c181 331 324 605 319 609 -4 5 -159 90 -343
190 -184 100 -358 195 -387 211 l-52 30 -24 -43z"/>
<path d="M7238 4361 c-47 -121 -97 -276 -91 -282 4 -4 113 -44 241 -90 186
-67 231 -87 226 -99 -68 -173 -343 -964 -337 -969 19 -17 335 -122 343 -115 4
5 110 294 235 643 179 500 224 635 214 642 -8 4 -52 22 -99 38 -47 16 -228 81
-403 144 l-318 115 -11 -27z"/>
<path d="M12231 4335 c-85 -30 -156 -57 -159 -60 -5 -5 96 -305 199 -589 l57
-159 -61 60 c-94 92 -589 534 -604 540 -10 4 -335 -100 -351 -113 -5 -3 438
-1277 447 -1287 6 -6 313 92 326 104 4 4 -130 396 -189 554 -19 50 -38 99 -42
110 -3 11 33 -19 82 -66 74 -71 461 -414 515 -456 12 -10 49 0 199 52 102 36
186 65 187 65 2 0 3 5 3 11 0 19 -443 1289 -449 1288 -3 0 -75 -24 -160 -54z"/>
<path d="M8411 3970 c-149 -22 -269 -109 -329 -238 -23 -50 -27 -70 -26 -152
0 -113 19 -165 88 -238 l45 -48 -52 -35 c-174 -115 -197 -352 -46 -500 92 -90
220 -140 459 -179 153 -25 370 -38 370 -22 0 6 52 302 115 658 64 356 115 648
113 649 -8 8 -194 56 -283 74 -189 37 -338 48 -454 31z m269 -300 c30 -6 54
-11 56 -13 3 -3 -47 -271 -52 -276 -2 -2 -34 3 -70 13 -139 34 -198 96 -174
181 25 90 104 121 240 95z m-59 -575 c13 -5 15 -13 9 -43 -5 -20 -14 -70 -20
-110 l-12 -73 -32 6 c-100 19 -131 30 -162 57 -27 24 -34 37 -34 68 0 46 29
86 73 100 32 10 149 7 178 -5z"/>
<path d="M10745 3946 c-148 -22 -150 -23 -148 -47 1 -13 32 -239 68 -503 36
-263 65 -486 63 -494 -3 -13 -36 -21 -167 -39 -90 -12 -166 -25 -169 -28 -6
-6 35 -305 43 -313 5 -5 1047 137 1054 144 4 3 -20 199 -35 289 l-5 31 -166
-23 c-92 -13 -169 -20 -172 -17 -3 3 -38 233 -76 512 l-71 507 -34 1 c-19 1
-102 -8 -185 -20z"/>
<path d="M10108 3873 l-46 -4 -21 -77 c-11 -42 -30 -116 -42 -164 l-21 -87
-154 -3 -155 -3 -51 163 -51 162 -199 0 c-141 0 -198 -3 -198 -11 0 -7 100
-315 222 -686 l223 -675 44 6 c24 3 124 6 221 6 l177 0 192 673 c106 369 194
680 197 690 5 16 -6 17 -143 15 -81 -1 -169 -3 -195 -5z m-229 -780 c-21 -82
-39 -152 -40 -158 0 -9 -32 88 -83 258 l-15 47 88 0 89 0 -39 -147z"/>
</g>
</svg>
